<svg xmlns="http://www.w3.org/2000/svg" xmlns:xlink="http://www.w3.org/1999/xlink" viewBox="0,0,256,256" width="96px" height="96px"><g fill="#ffffff" fill-rule="nonzero" stroke="none" stroke-width="1" stroke-linecap="butt" stroke-linejoin="miter" stroke-miterlimit="10" stroke-dasharray="" stroke-dashoffset="0" font-family="none" font-weight="none" font-size="none" text-anchor="none" style="mix-blend-mode: normal"><g transform="scale(5.33333,5.33333)"><path d="M9.187,12.901l3.812,6.099l-5.812,9.963c-0.527,0.903 0.124,2.037 1.169,2.037h4.501c0.712,0 1.37,-0.378 1.728,-0.993l5.805,-9.964c0.374,-0.641 0.361,-1.437 -0.032,-2.067l-3.773,-6.036c-0.364,-0.585 -1.005,-0.94 -1.695,-0.94h-4.65c-0.976,0 -1.571,1.074 -1.053,1.901zM32.431,5.047l-11.925,22c-0.328,0.605 -0.322,1.337 0.017,1.936l7.902,14c0.354,0.628 1.02,1.017 1.741,1.017h4.472c1.04,0 1.696,-1.12 1.188,-2.027l-7.827,-13.973l11.831,-21.842c0.527,-0.974 -0.178,-2.158 -1.286,-2.158h-4.355c-0.733,0 -1.408,0.402 -1.758,1.047z"></path></g></g></svg>